<svg xmlns="http://www.w3.org/2000/svg" width="1050" height="620" viewBox="0 0 1050 620">
<style>
text{font-family:Arial,Helvetica,sans-serif;fill:#1f252e}
.title{font-size:22px;font-weight:700}
.subtitle{font-size:13px;fill:#6f7a89}
.axis{stroke:#31363f;stroke-width:1.2}
.grid{stroke:#d8dee8;stroke-width:1}
.tick{font-size:11px;fill:#6f7a89}
.label{font-size:12px;fill:#1f252e}
.small{font-size:11px;fill:#6f7a89}
.value{font-size:12px;font-weight:700;fill:#1f252e}
</style>
<rect x="0" y="0" width="1050" height="620" fill="#ffffff"/>
<text x="36.00" y="42.00" class="title" text-anchor="start">Per-token latency CDF</text>
<text x="36.00" y="64.00" class="subtitle" text-anchor="start">Curves further left indicate more tokens completing earlier.</text>
<line x1="92.00" y1="94.00" x2="92.00" y2="470.00" class="axis"/>
<line x1="92.00" y1="470.00" x2="970.00" y2="470.00" class="axis"/>
<line x1="92.00" y1="94.00" x2="92.00" y2="470.00" class="grid"/>
<text x="92.00" y="492.00" class="tick" text-anchor="middle">0.0M</text>
<line x1="267.60" y1="94.00" x2="267.60" y2="470.00" class="grid"/>
<text x="267.60" y="492.00" class="tick" text-anchor="middle">2.8M</text>
<line x1="443.20" y1="94.00" x2="443.20" y2="470.00" class="grid"/>
<text x="443.20" y="492.00" class="tick" text-anchor="middle">5.6M</text>
<line x1="618.80" y1="94.00" x2="618.80" y2="470.00" class="grid"/>
<text x="618.80" y="492.00" class="tick" text-anchor="middle">8.4M</text>
<line x1="794.40" y1="94.00" x2="794.40" y2="470.00" class="grid"/>
<text x="794.40" y="492.00" class="tick" text-anchor="middle">11.2M</text>
<line x1="970.00" y1="94.00" x2="970.00" y2="470.00" class="grid"/>
<text x="970.00" y="492.00" class="tick" text-anchor="middle">14.0M</text>
<line x1="92.00" y1="470.00" x2="970.00" y2="470.00" class="grid"/>
<text x="82.00" y="474.00" class="tick" text-anchor="end">0.0</text>
<line x1="92.00" y1="394.80" x2="970.00" y2="394.80" class="grid"/>
<text x="82.00" y="398.80" class="tick" text-anchor="end">0.2</text>
<line x1="92.00" y1="319.60" x2="970.00" y2="319.60" class="grid"/>
<text x="82.00" y="323.60" class="tick" text-anchor="end">0.4</text>
<line x1="92.00" y1="244.40" x2="970.00" y2="244.40" class="grid"/>
<text x="82.00" y="248.40" class="tick" text-anchor="end">0.6</text>
<line x1="92.00" y1="169.20" x2="970.00" y2="169.20" class="grid"/>
<text x="82.00" y="173.20" class="tick" text-anchor="end">0.8</text>
<line x1="92.00" y1="94.00" x2="970.00" y2="94.00" class="grid"/>
<text x="82.00" y="98.00" class="tick" text-anchor="end">1.0</text>
<polyline points="96.47,469.94 100.77,468.46 102.62,466.98 105.07,465.50 107.74,464.02 110.71,462.54 113.01,461.06 115.87,459.58 119.14,458.11 123.06,456.63 125.78,455.15 129.11,453.67 132.78,452.19 136.81,450.71 141.52,449.23 145.62,447.75 149.69,446.27 154.10,444.80 158.51,443.32 162.60,441.84 165.53,440.36 168.31,438.88 172.21,437.40 175.67,435.92 179.01,434.44 181.74,432.97 185.10,431.49 188.62,430.01 192.26,428.53 196.59,427.05 200.44,425.57 203.51,424.09 207.91,422.61 213.07,421.14 216.86,419.66 220.93,418.18 224.25,416.70 227.33,415.22 230.25,413.74 233.40,412.26 236.99,410.78 240.14,409.31 243.41,407.83 247.00,406.35 250.23,404.87 253.36,403.39 257.58,401.91 261.24,400.43 264.85,398.95 268.19,397.47 270.55,396.00 273.46,394.52 277.10,393.04 281.23,391.56 285.47,390.08 288.74,388.60 291.45,387.12 293.71,385.64 295.82,384.17 298.74,382.69 302.02,381.21 306.48,379.73 309.17,378.25 312.27,376.77 315.30,375.29 319.23,373.81 322.96,372.34 325.91,370.86 329.69,369.38 335.47,367.90 339.27,366.42 342.61,364.94 346.18,363.46 350.07,361.98 356.10,360.50 360.30,359.03 364.48,357.55 368.24,356.07 371.47,354.59 374.31,353.11 377.56,351.63 379.91,350.15 383.43,348.67 387.69,347.20 390.93,345.72 394.79,344.24 398.48,342.76 403.07,341.28 408.28,339.80 411.85,338.32 414.71,336.84 419.02,335.37 422.61,333.89 424.69,332.41 426.84,330.93 430.14,329.45 435.25,327.97 440.09,326.49 442.04,325.01 443.78,323.53 445.98,322.06 449.80,320.58 452.68,319.10 457.50,317.62 462.27,316.14 466.27,314.66 469.56,313.18 472.97,311.70 476.66,310.23 479.93,308.75 482.38,307.27 485.96,305.79 489.16,304.31 491.63,302.83 495.32,301.35 497.86,299.87 499.87,298.40 502.63,296.92 505.75,295.44 510.14,293.96 514.24,292.48 516.53,291.00 519.15,289.52 522.56,288.04 526.50,286.56 530.70,285.09 534.11,283.61 537.37,282.13 540.79,280.65 543.46,279.17 547.16,277.69 550.56,276.21 553.95,274.73 557.74,273.26 561.31,271.78 564.19,270.30 567.03,268.82 570.30,267.34 573.85,265.86 578.17,264.38 582.03,262.90 584.85,261.43 587.27,259.95 589.42,258.47 593.34,256.99 596.38,255.51 598.90,254.03 601.84,252.55 605.28,251.07 607.75,249.60 610.14,248.12 613.10,246.64 616.08,245.16 618.81,243.68 622.12,242.20 625.19,240.72 629.02,239.24 631.81,237.76 634.42,236.29 636.99,234.81 639.88,233.33 645.08,231.85 649.36,230.37 651.91,228.89 654.36,227.41 656.80,225.93 659.71,224.46 663.58,222.98 666.52,221.50 669.84,220.02 672.59,218.54 676.07,217.06 679.19,215.58 683.51,214.10 685.94,212.63 687.81,211.15 690.87,209.67 693.81,208.19 696.62,206.71 700.70,205.23 703.32,203.75 705.74,202.27 708.78,200.79 712.44,199.32 716.92,197.84 719.69,196.36 723.82,194.88 725.77,193.40 728.28,191.92 731.28,190.44 736.72,188.96 739.72,187.49 742.49,186.01 745.20,184.53 749.02,183.05 753.50,181.57 756.01,180.09 759.00,178.61 761.41,177.13 764.25,175.66 766.51,174.18 768.94,172.70 771.47,171.22 774.07,169.74 777.07,168.26 779.94,166.78 782.63,165.30 785.11,163.82 788.02,162.35 790.33,160.87 792.80,159.39 794.71,157.91 797.65,156.43 800.59,154.95 804.33,153.47 806.83,151.99 809.88,150.52 813.00,149.04 815.48,147.56 818.98,146.08 821.19,144.60 823.26,143.12 825.77,141.64 828.68,140.16 831.17,138.69 833.57,137.21 836.13,135.73 837.91,134.25 840.23,132.77 844.09,131.29 846.73,129.81 849.47,128.33 851.99,126.85 853.94,125.38 856.44,123.90 859.27,122.42 861.99,120.94 864.20,119.46 866.44,117.98 868.90,116.50 871.24,115.02 873.65,113.55 876.25,112.07 878.27,110.59 881.86,109.11 884.26,107.63 887.23,106.15 888.99,104.67 891.44,103.19 893.49,101.72 896.21,100.24 899.42,98.76 901.66,97.28 904.17,95.80 908.15,94.32 908.54,94.00" fill="none" stroke="#5b6472" stroke-width="2.2" stroke-linejoin="round" stroke-linecap="round"/>
<polyline points="92.13,469.94 94.70,468.46 97.29,466.98 100.49,465.50 103.56,464.02 106.61,462.54 109.72,461.06 113.03,459.58 116.65,458.11 120.05,456.63 123.45,455.15 126.58,453.67 130.12,452.19 133.49,450.71 137.07,449.23 140.37,447.75 143.97,446.27 147.72,444.80 151.57,443.32 155.20,441.84 158.76,440.36 161.78,438.88 164.54,437.40 167.45,435.92 169.40,434.44 170.99,432.97 172.54,431.49 174.99,430.01 177.37,428.53 179.82,427.05 182.01,425.57 184.44,424.09 187.09,422.61 190.12,421.14 193.53,419.66 195.43,418.18 198.21,416.70 200.64,415.22 204.35,413.74 207.96,412.26 210.83,410.78 213.56,409.31 217.44,407.83 222.03,406.35 225.99,404.87 229.94,403.39 234.16,401.91 237.92,400.43 241.50,398.95 244.91,397.47 248.21,396.00 251.56,394.52 254.94,393.04 258.42,391.56 262.08,390.08 265.24,388.60 268.23,387.12 271.20,385.64 274.99,384.17 278.88,382.69 282.27,381.21 285.60,379.73 288.96,378.25 291.86,376.77 295.27,375.29 299.12,373.81 303.17,372.34 307.28,370.86 310.96,369.38 314.50,367.90 318.33,366.42 321.80,364.94 325.64,363.46 329.40,361.98 333.32,360.50 336.83,359.03 340.68,357.55 344.25,356.07 347.75,354.59 351.09,353.11 355.07,351.63 358.72,350.15 361.97,348.67 365.46,347.20 369.14,345.72 372.30,344.24 375.73,342.76 379.37,341.28 383.25,339.80 386.69,338.32 390.00,336.84 393.43,335.37 396.68,333.89 399.94,332.41 403.23,330.93 406.18,329.45 409.40,327.97 413.05,326.49 417.06,325.01 420.57,323.53 423.94,322.06 427.21,320.58 430.59,319.10 434.03,317.62 437.80,316.14 442.14,314.66 446.11,313.18 449.34,311.70 452.78,310.23 456.10,308.75 459.56,307.27 463.21,305.79 467.02,304.31 470.96,302.83 475.02,301.35 478.50,299.87 481.98,298.40 486.01,296.92 489.88,295.44 493.66,293.96 496.89,292.48 500.72,291.00 504.21,289.52 508.24,288.04 511.99,286.56 515.27,285.09 518.16,283.61 521.51,282.13 524.92,280.65 528.59,279.17 532.25,277.69 535.53,276.21 538.97,274.73 542.08,273.26 545.00,271.78 548.21,270.30 551.59,268.82 554.70,267.34 558.66,265.86 562.72,264.38 566.12,262.90 569.20,261.43 572.45,259.95 575.68,258.47 578.80,256.99 582.28,255.51 585.56,254.03 588.82,252.55 592.00,251.07 595.09,249.60 598.04,248.12 600.92,246.64 604.31,245.16 607.37,243.68 610.35,242.20 613.37,240.72 616.56,239.24 619.96,237.76 623.28,236.29 626.90,234.81 630.61,233.33 634.07,231.85 637.01,230.37 640.13,228.89 643.00,227.41 646.07,225.93 649.38,224.46 652.55,222.98 655.85,221.50 658.87,220.02 662.37,218.54 665.43,217.06 669.31,215.58 672.73,214.10 676.14,212.63 679.29,211.15 682.15,209.67 684.96,208.19 687.95,206.71 691.40,205.23 695.04,203.75 698.09,202.27 701.01,200.79 704.36,199.32 707.29,197.84 710.30,196.36 713.25,194.88 716.17,193.40 718.71,191.92 721.46,190.44 724.70,188.96 727.65,187.49 730.88,186.01 734.71,184.53 739.54,183.05 743.15,181.57 745.43,180.09 748.25,178.61 750.70,177.13 753.61,175.66 756.31,174.18 758.87,172.70 761.68,171.22 764.49,169.74 767.19,168.26 769.88,166.78 772.46,165.30 775.02,163.82 778.04,162.35 780.55,160.87 783.60,159.39 785.96,157.91 788.69,156.43 791.43,154.95 794.59,153.47 796.97,151.99 799.63,150.52 802.37,149.04 804.41,147.56 807.35,146.08 809.80,144.60 812.48,143.12 815.18,141.64 817.56,140.16 819.95,138.69 822.78,137.21 825.37,135.73 827.94,134.25 830.54,132.77 833.52,131.29 836.24,129.81 839.04,128.33 841.25,126.85 843.29,125.38 845.92,123.90 849.01,122.42 851.33,120.94 855.06,119.46 858.32,117.98 860.85,116.50 863.19,115.02 865.34,113.55 868.33,112.07 870.87,110.59 873.31,109.11 875.42,107.63 878.01,106.15 879.95,104.67 882.26,103.19 884.70,101.72 887.63,100.24 889.73,98.76 890.98,97.28 892.55,95.80 895.30,94.32 895.78,94.00" fill="none" stroke="#2f7ebc" stroke-width="2.2" stroke-linejoin="round" stroke-linecap="round"/>
<polyline points="92.68,469.94 95.17,468.46 96.78,466.98 99.39,465.50 101.61,464.02 103.73,462.54 105.97,461.06 108.38,459.58 111.10,458.11 113.39,456.63 115.74,455.15 118.81,453.67 121.38,452.19 123.38,450.71 126.11,449.23 128.68,447.75 131.10,446.27 133.04,444.80 135.74,443.32 138.81,441.84 142.21,440.36 144.38,438.88 147.07,437.40 150.36,435.92 153.78,434.44 156.99,432.97 159.74,431.49 162.32,430.01 164.63,428.53 166.73,427.05 168.92,425.57 171.88,424.09 174.87,422.61 176.90,421.14 179.63,419.66 182.71,418.18 185.44,416.70 187.88,415.22 190.92,413.74 194.49,412.26 197.69,410.78 199.88,409.31 202.87,407.83 204.98,406.35 207.46,404.87 209.75,403.39 212.42,401.91 215.18,400.43 217.41,398.95 219.59,397.47 222.79,396.00 225.23,394.52 227.63,393.04 229.77,391.56 233.52,390.08 235.59,388.60 238.96,387.12 241.28,385.64 244.56,384.17 247.63,382.69 250.56,381.21 253.14,379.73 256.23,378.25 260.97,376.77 264.05,375.29 267.21,373.81 270.26,372.34 273.87,370.86 276.92,369.38 279.18,367.90 282.35,366.42 285.77,364.94 289.02,363.46 292.10,361.98 295.37,360.50 298.54,359.03 301.40,357.55 303.65,356.07 305.64,354.59 307.14,353.11 309.26,351.63 311.73,350.15 314.46,348.67 317.17,347.20 319.93,345.72 322.02,344.24 324.63,342.76 327.09,341.28 329.29,339.80 331.27,338.32 332.87,336.84 335.33,335.37 338.80,333.89 342.17,332.41 346.01,330.93 349.06,329.45 352.31,327.97 354.55,326.49 357.67,325.01 360.86,323.53 364.03,322.06 366.77,320.58 370.11,319.10 373.34,317.62 376.78,316.14 379.79,314.66 383.08,313.18 386.03,311.70 389.81,310.23 392.28,308.75 395.35,307.27 398.60,305.79 401.80,304.31 404.85,302.83 408.71,301.35 412.55,299.87 415.93,298.40 419.17,296.92 422.62,295.44 425.85,293.96 429.73,292.48 432.11,291.00 435.51,289.52 439.25,288.04 442.78,286.56 445.83,285.09 449.11,283.61 452.41,282.13 455.37,280.65 458.26,279.17 462.25,277.69 465.67,276.21 469.59,274.73 472.73,273.26 477.23,271.78 479.96,270.30 484.15,268.82 486.53,267.34 489.15,265.86 491.70,264.38 494.75,262.90 497.68,261.43 500.51,259.95 503.49,258.47 507.47,256.99 509.85,255.51 512.69,254.03 516.46,252.55 519.91,251.07 522.80,249.60 525.98,248.12 529.61,246.64 532.31,245.16 535.40,243.68 540.03,242.20 542.93,240.72 547.49,239.24 550.47,237.76 554.74,236.29 558.33,234.81 562.53,233.33 565.62,231.85 568.85,230.37 572.53,228.89 576.34,227.41 579.52,225.93 582.95,224.46 586.99,222.98 590.30,221.50 593.69,220.02 597.44,218.54 600.75,217.06 604.18,215.58 607.47,214.10 611.63,212.63 615.71,211.15 619.14,209.67 622.27,208.19 625.67,206.71 628.81,205.23 632.03,203.75 635.42,202.27 639.87,200.79 643.80,199.32 647.54,197.84 651.29,196.36 655.06,194.88 658.15,193.40 661.62,191.92 664.75,190.44 668.13,188.96 671.65,187.49 675.23,186.01 678.46,184.53 682.02,183.05 686.17,181.57 690.15,180.09 693.13,178.61 696.75,177.13 700.37,175.66 703.90,174.18 706.34,172.70 711.21,171.22 714.51,169.74 718.44,168.26 721.37,166.78 724.74,165.30 728.35,163.82 731.75,162.35 735.06,160.87 738.37,159.39 741.52,157.91 745.54,156.43 749.05,154.95 753.61,153.47 757.14,151.99 760.74,150.52 763.24,149.04 766.77,147.56 770.81,146.08 775.62,144.60 779.00,143.12 782.59,141.64 785.88,140.16 790.09,138.69 793.06,137.21 796.23,135.73 799.91,134.25 803.28,132.77 806.41,131.29 809.88,129.81 814.22,128.33 817.57,126.85 820.34,125.38 824.22,123.90 827.32,122.42 830.80,120.94 834.28,119.46 837.71,117.98 841.19,116.50 844.40,115.02 847.31,113.55 850.24,112.07 852.97,110.59 856.12,109.11 859.25,107.63 863.85,106.15 866.77,104.67 869.55,103.19 872.55,101.72 875.31,100.24 879.19,98.76 881.49,97.28 884.22,95.80 888.37,94.32 890.28,94.00" fill="none" stroke="#37a36b" stroke-width="2.2" stroke-linejoin="round" stroke-linecap="round"/>
<polyline points="92.26,469.94 96.77,468.46 100.44,466.98 104.63,465.50 109.22,464.02 113.95,462.54 117.91,461.06 120.51,459.58 124.86,458.11 129.48,456.63 133.82,455.15 137.62,453.67 139.80,452.19 141.22,450.71 142.76,449.23 144.55,447.75 147.00,446.27 149.30,444.80 151.62,443.32 153.94,441.84 155.97,440.36 158.02,438.88 160.00,437.40 163.07,435.92 164.90,434.44 167.94,432.97 170.10,431.49 173.38,430.01 176.36,428.53 179.79,427.05 181.66,425.57 184.15,424.09 186.18,422.61 188.39,421.14 190.49,419.66 192.65,418.18 195.55,416.70 198.03,415.22 200.77,413.74 203.52,412.26 206.54,410.78 209.50,409.31 212.13,407.83 214.39,406.35 216.95,404.87 219.26,403.39 221.63,401.91 224.14,400.43 226.11,398.95 228.39,397.47 231.59,396.00 233.72,394.52 236.53,393.04 237.98,391.56 240.66,390.08 243.87,388.60 245.93,387.12 249.24,385.64 252.04,384.17 255.05,382.69 257.39,381.21 259.58,379.73 262.63,378.25 265.24,376.77 268.22,375.29 271.03,373.81 273.48,372.34 275.20,370.86 277.91,369.38 279.67,367.90 281.50,366.42 284.24,364.94 286.69,363.46 290.04,361.98 292.85,360.50 295.67,359.03 298.21,357.55 301.40,356.07 303.17,354.59 306.00,353.11 308.50,351.63 311.23,350.15 313.56,348.67 316.16,347.20 317.86,345.72 320.57,344.24 323.64,342.76 326.53,341.28 329.00,339.80 330.95,338.32 333.72,336.84 336.87,335.37 339.38,333.89 342.88,332.41 345.36,330.93 348.47,329.45 350.76,327.97 353.05,326.49 356.42,325.01 358.39,323.53 361.03,322.06 362.55,320.58 364.67,319.10 367.31,317.62 369.44,316.14 372.57,314.66 375.45,313.18 377.65,311.70 380.00,310.23 382.80,308.75 385.79,307.27 388.43,305.79 390.56,304.31 393.09,302.83 396.28,301.35 399.02,299.87 400.81,298.40 403.89,296.92 406.78,295.44 410.08,293.96 412.53,292.48 414.83,291.00 417.77,289.52 420.59,288.04 423.06,286.56 426.49,285.09 429.66,283.61 433.27,282.13 435.54,280.65 437.99,279.17 440.93,277.69 444.07,276.21 447.18,274.73 449.92,273.26 452.66,271.78 455.12,270.30 457.68,268.82 460.28,267.34 463.25,265.86 466.39,264.38 469.53,262.90 471.83,261.43 474.69,259.95 477.20,258.47 479.70,256.99 482.74,255.51 485.19,254.03 487.48,252.55 490.55,251.07 493.62,249.60 495.82,248.12 498.71,246.64 501.51,245.16 504.30,243.68 507.15,242.20 509.79,240.72 513.10,239.24 516.05,237.76 519.42,236.29 522.14,234.81 525.28,233.33 528.42,231.85 530.34,230.37 533.10,228.89 536.52,227.41 539.11,225.93 542.49,224.46 545.12,222.98 548.11,221.50 551.37,220.02 554.68,218.54 558.15,217.06 561.13,215.58 563.77,214.10 566.57,212.63 569.00,211.15 571.44,209.67 574.21,208.19 577.30,206.71 579.94,205.23 582.57,203.75 584.06,202.27 585.84,200.79 587.37,199.32 589.71,197.84 594.25,196.36 598.88,194.88 603.56,193.40 609.07,191.92 613.54,190.44 617.95,188.96 622.36,187.49 626.34,186.01 630.35,184.53 635.10,183.05 639.91,181.57 644.17,180.09 648.83,178.61 652.57,177.13 656.95,175.66 661.55,174.18 666.18,172.70 670.44,171.22 675.31,169.74 679.42,168.26 683.96,166.78 688.31,165.30 692.56,163.82 696.19,162.35 700.92,160.87 705.39,159.39 710.08,157.91 714.61,156.43 719.79,154.95 723.38,153.47 727.32,151.99 731.03,150.52 734.86,149.04 738.63,147.56 742.42,146.08 746.69,144.60 751.16,143.12 755.19,141.64 760.45,140.16 765.23,138.69 769.50,137.21 774.06,135.73 778.71,134.25 782.46,132.77 786.40,131.29 790.99,129.81 795.28,128.33 799.80,126.85 804.17,125.38 808.12,123.90 812.39,122.42 817.39,120.94 821.96,119.46 826.91,117.98 831.32,116.50 835.91,115.02 840.72,113.55 845.16,112.07 849.22,110.59 853.09,109.11 857.30,107.63 860.95,106.15 864.85,104.67 869.14,103.19 873.31,101.72 877.18,100.24 880.98,98.76 884.72,97.28 888.98,95.80 892.43,94.32 893.20,94.00" fill="none" stroke="#d28a1e" stroke-width="2.2" stroke-linejoin="round" stroke-linecap="round"/>
<polyline points="93.01,469.94 96.74,468.46 100.64,466.98 104.88,465.50 109.63,464.02 113.84,462.54 117.78,461.06 120.23,459.58 124.78,458.11 129.54,456.63 133.88,455.15 137.10,453.67 139.49,452.19 141.10,450.71 142.73,449.23 144.30,447.75 146.51,446.27 149.04,444.80 151.58,443.32 153.46,441.84 155.68,440.36 157.76,438.88 159.79,437.40 162.51,435.92 164.47,434.44 167.53,432.97 170.05,431.49 172.77,430.01 175.85,428.53 179.29,427.05 181.11,425.57 183.44,424.09 185.50,422.61 187.82,421.14 189.85,419.66 191.73,418.18 194.79,416.70 197.38,415.22 200.20,413.74 202.58,412.26 205.78,410.78 208.86,409.31 211.59,407.83 213.44,406.35 216.19,404.87 218.65,403.39 220.87,401.91 223.32,400.43 225.39,398.95 227.63,397.47 230.86,396.00 232.59,394.52 235.50,393.04 237.22,391.56 239.93,390.08 242.82,388.60 244.77,387.12 247.84,385.64 250.90,384.17 253.32,382.69 255.87,381.21 258.63,379.73 261.35,378.25 264.23,376.77 266.76,375.29 269.67,373.81 272.23,372.34 274.30,370.86 276.70,369.38 278.26,367.90 280.61,366.42 283.21,364.94 284.92,363.46 288.41,361.98 291.81,360.50 294.37,359.03 296.43,357.55 299.68,356.07 302.02,354.59 304.66,353.11 306.83,351.63 309.59,350.15 312.15,348.67 315.19,347.20 316.73,345.72 318.89,344.24 322.38,342.76 325.13,341.28 327.37,339.80 329.19,338.32 332.47,336.84 335.38,335.37 337.60,333.89 341.09,332.41 343.68,330.93 346.98,329.45 348.70,327.97 351.44,326.49 354.48,325.01 356.70,323.53 358.84,322.06 360.72,320.58 362.49,319.10 365.24,317.62 367.06,316.14 370.30,314.66 373.43,313.18 375.49,311.70 377.89,310.23 380.46,308.75 383.55,307.27 386.30,305.79 388.36,304.31 390.77,302.83 394.12,301.35 396.92,299.87 398.30,298.40 401.49,296.92 404.58,295.44 407.98,293.96 409.93,292.48 412.34,291.00 415.51,289.52 418.41,288.04 420.37,286.56 423.88,285.09 427.21,283.61 431.05,282.13 432.77,280.65 435.46,279.17 438.34,277.69 441.68,276.21 444.26,274.73 447.27,273.26 449.98,271.78 452.36,270.30 454.76,268.82 457.46,267.34 460.57,265.86 463.91,264.38 466.43,262.90 468.85,261.43 471.81,259.95 474.47,258.47 476.60,256.99 480.01,255.51 482.56,254.03 485.05,252.55 487.37,251.07 490.95,249.60 493.19,248.12 496.10,246.64 498.49,245.16 501.39,243.68 504.52,242.20 507.19,240.72 509.99,239.24 513.16,237.76 516.58,236.29 519.36,234.81 522.09,233.33 525.50,231.85 527.37,230.37 530.33,228.89 533.22,227.41 536.12,225.93 539.43,224.46 542.17,222.98 544.74,221.50 548.11,220.02 551.54,218.54 555.11,217.06 557.69,215.58 560.43,214.10 563.33,212.63 565.87,211.15 567.90,209.67 570.79,208.19 573.93,206.71 576.68,205.23 579.22,203.75 580.80,202.27 582.35,200.79 584.11,199.32 585.60,197.84 590.30,196.36 594.99,194.88 598.70,193.40 603.99,191.92 608.97,190.44 613.71,188.96 618.18,187.49 621.65,186.01 625.87,184.53 630.64,183.05 635.39,181.57 639.71,180.09 643.76,178.61 648.01,177.13 652.04,175.66 657.07,174.18 662.01,172.70 665.75,171.22 670.89,169.74 674.95,168.26 679.67,166.78 683.54,165.30 687.92,163.82 691.67,162.35 696.16,160.87 701.03,159.39 705.11,157.91 709.88,156.43 715.04,154.95 718.94,153.47 722.11,151.99 726.21,150.52 730.38,149.04 734.04,147.56 737.93,146.08 742.30,144.60 746.20,143.12 750.51,141.64 754.99,140.16 759.73,138.69 764.33,137.21 769.07,135.73 773.24,134.25 777.29,132.77 781.20,131.29 785.86,129.81 790.13,128.33 795.06,126.85 799.23,125.38 802.85,123.90 807.53,122.42 811.69,120.94 816.61,119.46 821.91,117.98 825.87,116.50 830.26,115.02 835.36,113.55 840.12,112.07 844.26,110.59 848.48,109.11 851.95,107.63 855.85,106.15 859.94,104.67 864.03,103.19 868.26,101.72 872.09,100.24 875.35,98.76 880.00,97.28 883.80,95.80 887.51,94.32 888.18,94.00" fill="none" stroke="#b84a62" stroke-width="2.2" stroke-linejoin="round" stroke-linecap="round"/>
<rect x="92.00" y="521.00" width="18.00" height="4.00" fill="#5b6472" stroke="none"/>
<text x="120.00" y="527.00" class="label" text-anchor="start">Sync baseline</text>
<rect x="337.00" y="521.00" width="18.00" height="4.00" fill="#2f7ebc" stroke="none"/>
<text x="365.00" y="527.00" class="label" text-anchor="start">Async send</text>
<rect x="582.00" y="521.00" width="18.00" height="4.00" fill="#37a36b" stroke="none"/>
<text x="610.00" y="527.00" class="label" text-anchor="start">Async + agg</text>
<rect x="92.00" y="549.00" width="18.00" height="4.00" fill="#d28a1e" stroke="none"/>
<text x="120.00" y="555.00" class="label" text-anchor="start">Async + counter</text>
<rect x="337.00" y="549.00" width="18.00" height="4.00" fill="#b84a62" stroke="none"/>
<text x="365.00" y="555.00" class="label" text-anchor="start">Full SmartNIC</text>
<text x="531.00" y="522.00" class="label" text-anchor="middle">Total latency cycles</text>
<text x="34.00" y="282.00" class="label" text-anchor="middle" transform="rotate(-90.00 34.00 282.00)">CDF</text>
</svg>